<svg xmlns="http://www.w3.org/2000/svg" width="40" height="32" viewBox="0 0 40 32">
    <defs>
        <linearGradient id="a" x1="50%" x2="50%" y1="42.298%" y2="101.353%">
            <stop offset="0%" stop-color="#0075FF"/>
            <stop offset="100%" stop-color="#00F93E"/>
        </linearGradient>
    </defs>
    <path fill="url(#a)" fill-rule="nonzero" d="M37.692 30.476H40V32H0v-1.524h2.308V23.62h1.538v6.857h3.077v-3.81h1.539v3.81h3.076v-16h1.539v16h3.077V23.62h1.538v6.857h3.077V19.81h1.539v10.666h4.615V16.762h1.539v13.714h3.076V11.43h1.539v19.047h3.077v-16h1.538v16zM34.471.05c.994-.274 1.909.632 1.633 1.616l-1.105 3.945a.667.667 0 0 1-1.111.29l-1.303-1.29-8.327 8.25a3.876 3.876 0 0 1-5.439 0l-4.88-4.834a2.325 2.325 0 0 0-3.263 0l-7.055 6.988-1.088-1.077 7.055-6.989a3.876 3.876 0 0 1 5.439 0l4.88 4.834c.9.891 2.363.891 3.263 0l8.328-8.249-1.303-1.29a.656.656 0 0 1 .293-1.1L34.47.05z"/>
</svg>
