<svg xmlns="http://www.w3.org/2000/svg" width="40" height="45" viewBox="0 0 40 45">
    <defs>
        <linearGradient id="a" x1="50%" x2="50%" y1="-15.625%" y2="115.774%">
            <stop offset="0%" stop-color="#6DC7FF"/>
            <stop offset="100%" stop-color="#E6ABFF"/>
        </linearGradient>
        <linearGradient id="b" x1="50%" x2="50%" y1="-.721%" y2="103.846%">
            <stop offset="0%" stop-color="#C8DCFF"/>
            <stop offset="100%" stop-color="#0075FF"/>
        </linearGradient>
        <linearGradient id="c" x1="50%" x2="50%" y1="-518.75%" y2="2200%">
            <stop offset="0%" stop-color="#C8DCFF"/>
            <stop offset="100%" stop-color="#C822FF"/>
        </linearGradient>
        <linearGradient id="d" x1="50%" x2="50%" y1="-518.75%" y2="2200%">
            <stop offset="0%" stop-color="#C8DCFF"/>
            <stop offset="100%" stop-color="#C822FF"/>
        </linearGradient>
        <linearGradient id="e" x1="50%" x2="50%" y1="-518.75%" y2="2200%">
            <stop offset="0%" stop-color="#C8DCFF"/>
            <stop offset="100%" stop-color="#C822FF"/>
        </linearGradient>
    </defs>
    <g fill="none" fill-rule="nonzero">
        <ellipse cx="22.609" cy="27.692" fill="url(#a)" rx="3.478" ry="3.462"/>
        <path fill="url(#b)" d="M37.391 4.327h-.87v-1.73A2.606 2.606 0 0 0 33.914 0H2.609A2.606 2.606 0 0 0 0 2.596V42.404A2.606 2.606 0 0 0 2.609 45h31.304a2.606 2.606 0 0 0 2.609-2.596V18.173h.87A2.606 2.606 0 0 0 40 15.577V6.923a2.606 2.606 0 0 0-2.609-2.596zM2.61 1.73h31.304c.48 0 .87.387.87.865v1.73H24.348a2.606 2.606 0 0 0-2.609 2.597h-20V2.596c0-.478.39-.865.87-.865zm26.956 39.807v1.731h-1.739v-1.73h1.74zm-3.478 1.731h-1.74v-1.73h1.74v1.73zm-3.478 0h-1.74v-1.73h1.74v1.73zm-3.479 0h-1.739v-1.73h1.74v1.73zm-3.478 0h-1.739v-1.73h1.74v1.73zm-3.478 0h-1.74v-1.73h1.74v1.73zm-3.478 0h-1.74v-1.73h1.74v1.73zm-3.479 0H3.478v-1.73h1.74v1.73zm26.087 0v-1.73h1.74v1.73h-1.74zm3.479-4.327c0 .478-.39.866-.87.866H2.609a.868.868 0 0 1-.87-.866V32.24l2.14-3.932c.3-.525.843-.85 1.449-.87.617-.012 1.164.258 1.506.768l4.502 6.721a3.46 3.46 0 0 0 2.899 1.542c.978 0 1.902-.405 2.567-1.133l3.595-3.936c.652.385 1.402.62 2.212.62.884 0 1.706-.267 2.394-.72l3.437 3.42a3.472 3.472 0 0 0 2.803.996c1.04-.102 1.97-.657 2.522-1.484l1.018-1.348V38.942zm-12.174-8.654A2.606 2.606 0 0 1 20 27.692a2.606 2.606 0 0 1 2.609-2.596 2.606 2.606 0 0 1 2.608 2.596 2.606 2.606 0 0 1-2.608 2.596zM34.783 30l-2.437 3.233c-.29.432-.755.71-1.276.761a1.718 1.718 0 0 1-1.4-.497l-3.438-3.421a4.283 4.283 0 0 0 .725-2.383c0-2.386-1.95-4.327-4.348-4.327-2.398 0-4.348 1.941-4.348 4.327 0 .954.322 1.828.849 2.545l-3.593 3.932a1.725 1.725 0 0 1-1.416.561 1.733 1.733 0 0 1-1.318-.765l-4.501-6.721a3.475 3.475 0 0 0-3.014-1.539 3.467 3.467 0 0 0-2.91 1.759l-.619 1.14V8.654h20V19.54c0 .704.422 1.331 1.075 1.601a1.74 1.74 0 0 0 1.897-.376l2.606-2.593h7.466V30zm3.478-14.422c0 .478-.39.865-.87.865H27.317c-.464 0-.901.18-1.23.507l-2.61 2.592V6.923c0-.478.39-.865.87-.865H37.39c.48 0 .87.387.87.865v8.654z"/>
        <path fill="url(#c)" d="M26.957 8.654h7.826v1.731h-7.826zM26.957 12.115h7.826v1.731h-7.826z"/>
        <path fill="url(#d)" d="M3.478 3.462h4.348v1.731H3.478z"/>
        <path fill="url(#e)" d="M9.565 3.462h3.478v1.731H9.565z"/>
    </g>
</svg>
