<svg xmlns="http://www.w3.org/2000/svg" width="40" height="40" viewBox="0 0 40 40">
    <defs>
        <linearGradient id="a" x1="49.999%" x2="49.999%" y1="-2.404%" y2="102.613%">
            <stop offset="0%" stop-color="#C8DCFF"/>
            <stop offset="100%" stop-color="#0075FF"/>
        </linearGradient>
        <linearGradient id="b" x1="49.999%" x2="49.999%" y1="-2.404%" y2="102.613%">
            <stop offset="0%" stop-color="#FF00CA"/>
            <stop offset="100%" stop-color="#0075FF"/>
        </linearGradient>
    </defs>
    <g fill="none" fill-rule="nonzero">
        <path fill="url(#a)" d="M26.154 20a6.154 6.154 0 0 1-12.308 0c0-3.398 3.077-6.154 6.154-6.154V20h6.154z"/>
        <path fill="url(#b)" d="M20 0C8.972 0 0 8.972 0 20s8.972 20 20 20 20-8.972 20-20S31.028 0 20 0zm0 38.462C9.82 38.462 1.538 30.179 1.538 20 1.538 9.82 9.82 1.538 20 1.538S38.462 9.821 38.462 20c0 10.18-8.283 18.462-18.462 18.462z"/>
        <path fill="url(#b)" d="M20 4.615h-.77v2.347A13.03 13.03 0 0 0 6.924 20c0 7.21 5.866 13.077 13.077 13.077 6.952 0 12.636-5.455 13.038-12.308h2.347V20c0-8.34-7.046-15.385-15.385-15.385zm0 26.923c-6.362 0-11.538-5.176-11.538-11.538 0-6.103 4.615-11.1 10.769-11.5v12.27h12.268C31.101 26.772 26.103 31.537 20 31.537zm.77-12.307V6.176c6.922.4 12.654 6.145 13.053 13.055H20.77z"/>
    </g>
</svg>
