<svg xmlns="http://www.w3.org/2000/svg" width="32" height="32" viewBox="0 0 32 32">
    <g fill="none" fill-rule="evenodd">
        <circle cx="16" cy="16" r="16" fill="#00AC9A"/>
        <g fill="#FFF" fill-rule="nonzero">
            <path d="M6.464 8.948a.44.44 0 0 1 .46.04l7.68 5.769a.445.445 0 0 1 .177.35v6.597a.44.44 0 0 1-.44.44.44.44 0 0 1-.44-.44V15.33l-6.8-5.11v11.485a.44.44 0 0 1-.879.004V9.34c0-.167.096-.32.242-.392zM25.172 8.948c.15.075.242.228.242.392v12.368a.44.44 0 0 1-.88 0v-11.49l-6.796 5.111v6.379a.44.44 0 0 1-.88 0V15.11c0-.14.065-.269.178-.35l7.673-5.772a.446.446 0 0 1 .463-.041z"/>
        </g>
    </g>
</svg>
