<svg xmlns="http://www.w3.org/2000/svg" width="32" height="32" viewBox="0 0 32 32">
    <g fill="none" fill-rule="nonzero">
        <path fill="#FFF" d="M29.44 32H2.56A2.568 2.568 0 0 1 0 29.44V2.56A2.568 2.568 0 0 1 2.56 0h26.88A2.568 2.568 0 0 1 32 2.56v26.88A2.568 2.568 0 0 1 29.44 32z"/>
        <g fill="#002868">
            <path d="M6.244 28.779c-.084 0-.152-.077-.152-.161v-4.3c0-.084-.069-.161-.153-.161H4.421c-.085 0-.16-.068-.16-.153v-.83c0-.085.076-.162.16-.162h4.672c.085 0 .161.076.161.161v.831c0 .085-.076.153-.16.153h-1.51a.167.167 0 0 0-.161.16v4.3c0 .085-.068.162-.153.162H6.244zM13.918 23.173c0-.084.068-.16.152-.16h1.018c.084 0 .161.075.161.16v2.935c0 1.738-.983 2.747-2.544 2.747-1.552 0-2.527-1.009-2.527-2.747v-2.935c0-.084.068-.16.153-.16h1.017c.085 0 .161.075.161.16v2.976c0 .857.44 1.467 1.205 1.467.763 0 1.204-.61 1.204-1.467v-2.976zM19.922 24.895c-.135 0-.178-.051-.23-.153-.177-.416-.568-.678-1.16-.678-.535 0-.984.187-.984.543 0 .39.416.551 1.33.661 1.392.161 2.189.586 2.189 1.688 0 1.238-1.086 1.89-2.476 1.89-1.204 0-2.239-.585-2.4-1.813-.017-.119.043-.162.161-.162h.933c.119 0 .187.052.221.144.127.408.56.722 1.187.722.552 0 1.035-.204 1.035-.636 0-.518-.509-.61-1.526-.738-1.17-.153-1.984-.492-1.984-1.57 0-1.077.924-1.848 2.374-1.848 1.306 0 2.213.704 2.4 1.756.026.118-.009.195-.135.195h-.935v-.001zM22.22 28.779c-.085 0-.153-.077-.153-.161v-5.445c0-.084.068-.16.153-.16h2.306c1.713 0 3.044 1.178 3.044 2.9 0 1.696-1.314 2.866-3.044 2.866H22.22zm2.306-1.146c.925 0 1.645-.73 1.645-1.739 0-1.009-.721-1.738-1.654-1.738h-.958c-.084 0-.152.075-.152.16v3.163c0 .085.068.153.152.153h.967v.001z"/>
        </g>
        <path fill="#002868" d="M31.147 19.84H.853a.428.428 0 0 1-.426-.427V2.56A2.14 2.14 0 0 1 2.56.427h26.88a2.14 2.14 0 0 1 2.133 2.133v16.853a.428.428 0 0 1-.426.427z"/>
        <path fill="#FFF" d="M17.571 16.38h-2.773a.32.32 0 0 1-.32-.32V4.326a.32.32 0 0 1 .32-.32h2.773a.32.32 0 0 1 .32.32V16.06a.32.32 0 0 1-.32.32z"/>
        <path fill="#FFF" d="M22.293 7.42H9.707a.32.32 0 0 1-.32-.32V4.326a.32.32 0 0 1 .32-.32h12.586a.32.32 0 0 1 .32.32V7.1a.32.32 0 0 1-.32.32z"/>
    </g>
</svg>
