<?xml version="1.0" standalone="no"?>
<!DOCTYPE svg PUBLIC "-//W3C//DTD SVG 20010904//EN"
 "http://www.w3.org/TR/2001/REC-SVG-20010904/DTD/svg10.dtd">
<svg version="1.0" xmlns="http://www.w3.org/2000/svg"
 width="135.000000pt" height="135.000000pt" viewBox="0 0 135.000000 135.000000"
 preserveAspectRatio="xMidYMid meet">
<metadata>
Created by potrace 1.11, written by Peter Selinger 2001-2013
</metadata>
<g transform="translate(0.000000,135.000000) scale(0.100000,-0.100000)"
fill="#000000" stroke="none">
<path d="M522 1324 c-122 -26 -258 -113 -324 -208 -18 -25 -13 -22 32 17 95
85 192 123 321 126 136 3 249 -41 340 -134 107 -109 143 -282 89 -430 -12 -33
-24 -67 -26 -75 -3 -8 8 -29 23 -45 15 -17 57 -64 93 -105 35 -41 75 -86 87
-100 12 -14 31 -35 42 -48 l19 -23 20 28 c21 31 67 142 77 188 4 17 9 37 12
45 3 8 5 25 4 38 -1 12 3 22 10 22 9 0 8 4 -1 15 -7 8 -8 15 -3 15 23 0 -8
183 -49 290 -54 138 -189 287 -318 349 -24 12 -24 11 -5 -4 66 -51 118 -102
153 -148 44 -57 98 -157 106 -197 3 -14 12 -50 19 -80 7 -30 12 -89 11 -130
-1 -66 -5 -94 -19 -150 -2 -8 -4 -16 -4 -18 -1 -2 -19 15 -41 38 -46 48 -51
67 -35 130 12 51 13 148 0 200 -5 19 -9 37 -9 40 -1 9 -40 95 -46 100 -3 3
-11 17 -19 33 -8 15 -18 27 -23 27 -4 0 -8 7 -8 15 0 8 -3 15 -7 15 -5 0 -30
21 -57 46 -114 105 -302 153 -464 118z"/>
<path d="M97 1007 c-77 -131 -109 -310 -83 -457 36 -199 182 -400 346 -479 24
-12 24 -11 5 4 -45 35 -129 123 -157 163 -98 142 -139 331 -107 493 l12 63 47
-52 47 -52 -13 -52 c-66 -251 102 -527 366 -602 150 -43 318 -18 446 66 56 37
154 133 154 150 0 7 -7 3 -15 -9 -22 -31 -141 -108 -200 -128 -69 -25 -218
-29 -287 -8 -160 47 -264 152 -306 308 -22 86 -16 163 23 260 l27 67 -33 36
c-19 20 -37 39 -40 42 -3 3 -38 42 -77 87 -38 45 -83 96 -99 113 l-30 32 -26
-45z"/>
</g>
</svg>
