<?xml version="1.0" encoding="utf-8"?>
<!-- Generator: Adobe Illustrator 23.0.4, SVG Export Plug-In . SVG Version: 6.00 Build 0)  -->
<svg version="1.1" id="Layer_3" xmlns="http://www.w3.org/2000/svg" xmlns:xlink="http://www.w3.org/1999/xlink" x="0px" y="0px"
	 viewBox="0 0 785 455" style="enable-background:new 0 0 785 455;" xml:space="preserve">
<style type="text/css">
	.st0{opacity:0.1;}
	.st1{fill:none;stroke:url(#SVGID_1_);stroke-width:2;stroke-miterlimit:10;}
	.st2{fill:none;stroke:url(#SVGID_2_);stroke-width:2;stroke-miterlimit:10;}
	.st3{fill:none;stroke:url(#SVGID_3_);stroke-width:2;stroke-miterlimit:10;}
	.st4{fill:none;stroke:url(#SVGID_4_);stroke-width:2;stroke-miterlimit:10;}
	.st5{opacity:0.5;}
	.st6{fill:none;stroke:url(#SVGID_5_);stroke-width:2;stroke-miterlimit:10;}
	.st7{fill:none;stroke:url(#SVGID_6_);stroke-width:2;stroke-miterlimit:10;}
	.st8{fill:none;stroke:url(#SVGID_7_);stroke-width:2;stroke-miterlimit:10;}
	.st9{fill:none;stroke:url(#SVGID_8_);stroke-width:2;stroke-miterlimit:10;}
	.st10{fill:none;stroke:url(#SVGID_9_);stroke-width:2;stroke-miterlimit:10;}
	.st11{fill:none;stroke:url(#SVGID_10_);stroke-width:2;stroke-miterlimit:10;}
	.st12{fill:none;stroke:url(#SVGID_11_);stroke-width:2;stroke-miterlimit:10;}
	.st13{fill:none;stroke:url(#SVGID_12_);stroke-width:2;stroke-miterlimit:10;}
	.st14{fill:none;stroke:url(#SVGID_13_);stroke-width:2;stroke-miterlimit:10;}
	.st15{fill:none;stroke:url(#SVGID_14_);stroke-width:2;stroke-miterlimit:10;}
	.st16{fill:none;stroke:url(#SVGID_15_);stroke-width:2;stroke-miterlimit:10;}
	.st17{fill:none;stroke:url(#SVGID_16_);stroke-width:2;stroke-miterlimit:10;}
	.st18{fill:none;stroke:url(#SVGID_17_);stroke-miterlimit:10;}
</style>
<g>
	<g>
		<g class="st0">
			<g>
				<g>
					
						<radialGradient id="SVGID_1_" cx="355.582" cy="258.8475" r="260.9758" gradientTransform="matrix(1 0 0 -1.3 0 779.9191)" gradientUnits="userSpaceOnUse">
						<stop  offset="0" style="stop-color:#FFFFFF"/>
						<stop  offset="0.8587" style="stop-color:#FFFFFF;stop-opacity:0.1413"/>
						<stop  offset="1" style="stop-color:#FFFFFF;stop-opacity:0"/>
					</radialGradient>
					<path class="st1" d="M710.8,359.5L611,303.4c-5.4-3-15.2-2.4-21.9,1.4L485.4,364c-5.5,3.1-13.5,3.7-17.9,1.2l-70.8-39.8
						c-4.4-2.5-3.5-7,2-10.2l35.7-20.4c3.2-1.9,5.3-4.2,5.7-6.5c0.5-2.4-0.7-4.5-3.3-5.9l-51.3-28.9c-2.6-1.5-6.3-2.1-10.5-1.8
						c-4.1,0.3-8.2,1.4-11.5,3.3l-109.2,62.3c-5.5,3.1-13.5,3.7-17.9,1.2L166.3,279c0,0-8.5-4.7,2-10.2l39.6-22.6
						c3.2-1.9,5.3-4.2,5.7-6.5c0.4-2.4-0.7-4.5-3.3-5.9l-80.8-45.5c-2.6-1.5-6.3-2.1-10.5-1.8c-4.2,0.3-8.2,1.4-11.5,3.3l-27.1,15.5
						c-5.5,3.1-13.5,3.7-17.9,1.2L0.4,171.4"/>
				</g>
			</g>
			<g>
				<g>
					
						<radialGradient id="SVGID_2_" cx="554.8289" cy="290.4551" r="169.5344" gradientTransform="matrix(1 0 0 -1 0 456)" gradientUnits="userSpaceOnUse">
						<stop  offset="0" style="stop-color:#FFFFFF"/>
						<stop  offset="0.8587" style="stop-color:#FFFFFF;stop-opacity:0.1413"/>
						<stop  offset="1" style="stop-color:#FFFFFF;stop-opacity:0"/>
					</radialGradient>
					<path class="st2" d="M452.2,0.9l-64,36.5c-6.7,3.8-7.8,9.4-2.4,12.4l66.4,37.3c4.4,2.5,3.5,7-2,10.2L409,120.8
						c-6.7,3.8-7.8,9.4-2.4,12.4l49.7,28c2.6,1.5,6.3,2.1,10.5,1.8c4.1-0.3,8.2-1.4,11.5-3.3l52.9-30.2c2.7-1.5,6-2.5,9.4-2.7
						c3.4-0.2,6.4,0.3,8.6,1.5l49.1,27.6c4.4,2.5,3.5,7-2,10.2l-49,28c-6.7,3.8-7.8,9.4-2.4,12.4l58.2,32.8c4.4,2.5,3.5,7-2,10.2
						l-53.7,30.6c-6.7,3.8-7.8,9.4-2.4,12.4l63.2,35.6c5.4,3,15.2,2.4,21.9-1.4l97.6-55.7"/>
				</g>
			</g>
			<g>
				<g>
					
						<radialGradient id="SVGID_3_" cx="214.187" cy="225.535" r="175.2998" gradientTransform="matrix(1 0 0 -1 0 456)" gradientUnits="userSpaceOnUse">
						<stop  offset="0" style="stop-color:#FFFFFF"/>
						<stop  offset="0.8587" style="stop-color:#FFFFFF;stop-opacity:0.1413"/>
						<stop  offset="1" style="stop-color:#FFFFFF;stop-opacity:0"/>
					</radialGradient>
					<path class="st3" d="M62.8,35.4l191.5,107.8c2.1,1.2,3.1,2.9,2.7,4.8c-0.4,1.9-2,3.8-4.7,5.3l-36.5,20.8
						c-6.7,3.8-7.8,9.4-2.4,12.4l32.5,18.3c5.4,3,15.2,2.4,21.9-1.4l26.5-15.1c5.5-3.1,13.5-3.7,17.9-1.2l33.7,19
						c2.1,1.2,3.1,2.9,2.7,4.8c-0.4,1.9-2,3.8-4.7,5.3l-161.8,92.3c-3.2,1.9-5.3,4.2-5.7,6.5c-0.4,2.4,0.7,4.5,3.3,5.9l185.7,104.5"
						/>
				</g>
			</g>
			<g>
				<g>
					<g>
						<g>
							
								<image style="overflow:visible;enable-background:new    ;" width="518" height="391" xlink:href="EB34673D6D8C1C30.png"  transform="matrix(0.996 0 0 0.996 268.7129 28.9755)">
							</image>
						</g>
					</g>
				</g>
			</g>
			<g>
				<g>
					
						<radialGradient id="SVGID_4_" cx="443.1194" cy="382.7983" r="246.8502" gradientTransform="matrix(1 0 0 -1.3 0 779.9191)" gradientUnits="userSpaceOnUse">
						<stop  offset="0" style="stop-color:#FFFFFF"/>
						<stop  offset="0.8587" style="stop-color:#FFFFFF;stop-opacity:0.1413"/>
						<stop  offset="1" style="stop-color:#FFFFFF;stop-opacity:0"/>
					</radialGradient>
					<path class="st4" d="M765.8,181.8l-81.2,46.3c-5.5,3.1-13.5,3.7-17.9,1.2l-49.7-28c-2.6-1.5-6.3-2.1-10.5-1.8
						c-4.2,0.3-8.2,1.4-11.5,3.3l-75.6,43.1c-2.7,1.5-6,2.5-9.4,2.7c-3.4,0.2-6.4-0.3-8.6-1.5L467,227.6c-5.4-3-15.2-2.4-21.9,1.4
						l-77.9,44.5c-5.5,3.1-13.5,3.7-17.9,1.2l-80.3-45.2c-2.1-1.2-3.1-2.9-2.7-4.8c0.4-1.9,2-3.8,4.7-5.3l94.4-53.8
						c3.2-1.9,5.3-4.2,5.7-6.5c0.5-2.4-0.7-4.5-3.3-5.9L120.5,14"/>
				</g>
			</g>
		</g>
		<g class="st5">
			<g>
				<g>
					
						<radialGradient id="SVGID_5_" cx="483.752" cy="362.6402" r="215.8273" gradientTransform="matrix(1 0 0 -2 0 1535.7305)" gradientUnits="userSpaceOnUse">
						<stop  offset="0" style="stop-color:#FFFFFF"/>
						<stop  offset="0.855" style="stop-color:#FFFFFF;stop-opacity:0.145"/>
						<stop  offset="1" style="stop-color:#FFFFFF;stop-opacity:0"/>
					</radialGradient>
					<path class="st6" d="M708.9,44.6l-111.4,63.6c-2.9,1.7-4.7,3.7-5.1,5.8c-0.4,2.1,0.7,4,3,5.3l74.8,42.1
						c1.9,1.1,2.8,2.6,2.4,4.4s-1.8,3.4-4.2,4.8l-79,45.1c-4.9,2.8-12.1,3.3-16.1,1.1l-25.8-14.5c-4.8-2.7-13.7-2.1-19.7,1.3
						l-57.3,32.7c-2.9,1.7-4.7,3.7-5.1,5.8c-0.4,2.1,0.6,4,3,5.3l78.7,44.3c1.9,1.1,2.8,2.6,2.4,4.4s-1.8,3.4-4.2,4.8l-78.3,44.7
						c-4.9,2.8-12.1,3.3-16.1,1.1l-28.6-16.1c-2.3-1.3-5.7-1.9-9.4-1.6c-3.7,0.2-7.4,1.3-10.3,3l-90.3,51.5c-6,3.4-7,8.4-2.1,11.1
						l19.5,11c4,2.2,3.2,6.3-1.8,9.1l-69.3,39.5"/>
				</g>
			</g>
			<g>
				<g>
					
						<radialGradient id="SVGID_6_" cx="358.863" cy="496.6761" r="216.9073" gradientTransform="matrix(1 0 0 -3 0 2615.4609)" gradientUnits="userSpaceOnUse">
						<stop  offset="0" style="stop-color:#FFFFFF"/>
						<stop  offset="0.8587" style="stop-color:#FFFFFF;stop-opacity:0.1413"/>
						<stop  offset="1" style="stop-color:#FFFFFF;stop-opacity:0"/>
					</radialGradient>
					<path class="st7" d="M74.5,253l46.1,25.9c2.3,1.3,5.7,1.9,9.4,1.6c3.7-0.2,7.4-1.3,10.3-3l74.1-42.3c2.4-1.4,5.4-2.2,8.4-2.4
						s5.8,0.3,7.7,1.4l29.7,16.7c4.8,2.7,13.7,2.1,19.7-1.3l55.5-31.7c6-3.4,7-8.4,2.1-11.2l-38.1-21.5c-1.9-1.1-2.8-2.6-2.4-4.4
						c0.3-1.7,1.8-3.4,4.2-4.8L356,145c4.9-2.8,12.1-3.3,16.1-1.1l35.3,19.9c4.8,2.7,13.7,2.1,19.7-1.3l65-37.1
						c4.9-2.8,12.1-3.3,16.1-1.1l38.7,21.8c4.8,2.7,13.7,2.1,19.7-1.3l70.6-40.3c2.9-1.7,4.7-3.7,5.1-5.8c0.4-2.1-0.7-4-3-5.3
						L569,53.8"/>
				</g>
			</g>
			<g>
				<g>
					
						<radialGradient id="SVGID_7_" cx="276.217" cy="146.041" r="161.4597" gradientTransform="matrix(1 0 0 -0.9 0 348.027)" gradientUnits="userSpaceOnUse">
						<stop  offset="0" style="stop-color:#FFFFFF"/>
						<stop  offset="0.855" style="stop-color:#FFFFFF;stop-opacity:0.145"/>
						<stop  offset="1" style="stop-color:#FFFFFF;stop-opacity:0"/>
					</radialGradient>
					<path class="st8" d="M448.8,423.3l-58.1-32.7c-1.9-1.1-2.8-2.6-2.4-4.4s1.8-3.4,4.2-4.8l28.1-16c6-3.4,7-8.4,2.1-11.1l-77-43.3
						c-2.3-1.3-5.7-1.9-9.4-1.6c-3.7,0.2-7.4,1.3-10.3,3l-48.8,27.8c-2.4,1.4-5.4,2.2-8.4,2.4c-3,0.2-5.8-0.3-7.7-1.4l-29.7-16.7
						c-3.9-2.2-3.2-6.3,1.8-9.1l35.2-20.1c6-3.4,7-8.4,2.1-11.1l-90.5-50.9c-3.9-2.2-3.2-6.3,1.8-9.1l35.6-20.3
						c6-3.4,7-8.4,2.1-11.2l-115.9-65.2"/>
				</g>
			</g>
			<g>
				<g>
					
						<radialGradient id="SVGID_8_" cx="393.7071" cy="332.9411" r="262.305" gradientTransform="matrix(1 0 0 -3 0 2615.4609)" gradientUnits="userSpaceOnUse">
						<stop  offset="0" style="stop-color:#FFFFFF"/>
						<stop  offset="0.8587" style="stop-color:#FFFFFF;stop-opacity:0.1413"/>
						<stop  offset="1" style="stop-color:#FFFFFF;stop-opacity:0"/>
					</radialGradient>
					<path class="st9" d="M743.7,210.5L536.3,328.9c-4.9,2.8-12.1,3.3-16.1,1.1l-116.6-65.6c-2.3-1.3-5.7-1.9-9.4-1.6
						c-3.7,0.2-7.4,1.3-10.3,3l-37.7,21.5c-6,3.4-7,8.4-2.1,11.2l19.1,10.8c4,2.2,3.2,6.3-1.8,9.1l-36.3,20.7
						c-2.4,1.4-5.4,2.2-8.4,2.4c-3,0.2-5.8-0.3-7.7-1.4l-26.3-14.8c-2.3-1.3-5.7-1.9-9.4-1.6c-3.7,0.2-7.4,1.3-10.3,3L43.7,451.6"/>
				</g>
			</g>
			<g>
				<g>
					
						<radialGradient id="SVGID_9_" cx="473.6244" cy="345.0856" r="216.8719" gradientTransform="matrix(1 0 0 -1.3 0 779.9191)" gradientUnits="userSpaceOnUse">
						<stop  offset="0" style="stop-color:#FFFFFF"/>
						<stop  offset="1" style="stop-color:#FFFFFF;stop-opacity:0"/>
					</radialGradient>
					<path class="st10" d="M187.5,74.7l114.5,64.4c4,2.2,3.2,6.3-1.8,9.1l-10.6,6c-2.9,1.7-4.7,3.7-5.1,5.8c-0.4,2.1,0.6,4,3,5.3
						l69.1,38.9c4.8,2.7,13.7,2.1,19.7-1.3l18-10.3c2.4-1.4,5.4-2.2,8.4-2.4s5.8,0.3,7.7,1.4l24.1,13.5c1.9,1.1,2.8,2.6,2.4,4.4
						c-0.3,1.7-1.8,3.4-4.2,4.8l-24.3,13.9c-6,3.4-7,8.4-2.1,11.1l88.6,49.9c4.8,2.7,13.7,2.1,19.7-1.3l245.3-140"/>
				</g>
			</g>
			<g>
				<g>
					
						<radialGradient id="SVGID_10_" cx="265.1582" cy="322.0761" r="213.5882" gradientTransform="matrix(1 0 0 -1.5 0 995.8652)" gradientUnits="userSpaceOnUse">
						<stop  offset="0" style="stop-color:#FFFFFF"/>
						<stop  offset="1" style="stop-color:#FFFFFF;stop-opacity:0"/>
					</radialGradient>
					<path class="st11" d="M432,52.3l58.5,32.9c1.9,1.1,2.8,2.6,2.4,4.3c-0.3,1.7-1.8,3.4-4.2,4.8L433.1,126
						c-2.9,1.7-4.7,3.7-5.1,5.8c-0.4,2.1,0.6,4,3,5.3l54.5,30.6c1.9,1.1,2.8,2.6,2.4,4.4c-0.3,1.7-1.8,3.4-4.2,4.8l-38.5,22
						c-2.9,1.7-4.7,3.7-5.1,5.8c-0.4,2.1,0.6,4,3,5.3l56.2,31.6c4,2.2,3.2,6.3-1.8,9.1L407.7,302c-4.9,2.8-12.1,3.3-16.1,1.1
						l-68-38.3c-2.3-1.3-5.7-1.9-9.4-1.6c-3.7,0.2-7.4,1.3-10.3,3L28,423.6"/>
				</g>
			</g>
		</g>
	</g>
	<g>
		<g>
			<g>
				
					<radialGradient id="SVGID_11_" cx="316.342" cy="643.4752" r="175.3157" gradientTransform="matrix(1 0 0 -6 0 3355.5305)" gradientUnits="userSpaceOnUse">
					<stop  offset="0" style="stop-color:#FFFFFF"/>
					<stop  offset="0.8538" style="stop-color:#FFFFFF;stop-opacity:0.1462"/>
					<stop  offset="1" style="stop-color:#FFFFFF;stop-opacity:0"/>
				</radialGradient>
				<path class="st12" d="M541.4,44.1l-69.3,39.6c-6,3.4-7,8.4-2.1,11.2l19.5,11c1.9,1.1,2.8,2.6,2.4,4.3c-0.3,1.7-1.8,3.4-4.2,4.8
					l-90.3,51.5c-2.4,1.4-5.4,2.2-8.4,2.4c-3,0.2-5.8-0.3-7.7-1.4l-28.6-16.1c-2.3-1.3-5.7-1.9-9.4-1.6c-3.7,0.2-7.4,1.3-10.3,2.9
					l-78.3,44.7c-6,3.4-7,8.4-2.1,11.1l78.7,44.3c1.9,1.1,2.8,2.6,2.4,4.4s-1.8,3.4-4.2,4.8l-57.3,32.7c-2.4,1.4-5.4,2.2-8.4,2.4
					c-3,0.2-5.8-0.3-7.7-1.4l-25.8-14.5c-4.8-2.7-13.6-2.1-19.7,1.3l-79,45.1c-6,3.4-7,8.4-2.1,11.2l74.8,42.1
					c3.9,2.2,3.2,6.3-1.8,9.1L91.2,453.5"/>
			</g>
		</g>
		<g>
			<g>
				
					<radialGradient id="SVGID_12_" cx="442.9753" cy="331.6936" r="216.9456" gradientTransform="matrix(1 0 0 3.5 0 -1137.375)" gradientUnits="userSpaceOnUse">
					<stop  offset="0" style="stop-color:#FFFFFF"/>
					<stop  offset="0.9826" style="stop-color:#FFFFFF;stop-opacity:0"/>
				</radialGradient>
				<path class="st13" d="M727.2,246l-46.1-25.9c-4.8-2.7-13.7-2.1-19.7,1.3l-74.1,42.3c-4.9,2.8-12.1,3.3-16.1,1.1L541.5,248
					c-4.8-2.7-13.7-2.1-19.7,1.3L466.3,281c-2.9,1.7-4.7,3.7-5.1,5.8c-0.4,2.1,0.6,4,3,5.3l38.1,21.5c1.9,1.1,2.8,2.6,2.4,4.4
					s-1.8,3.4-4.2,4.8L445.7,354c-4.9,2.8-12.1,3.3-16.1,1.1l-35.3-19.9c-4.8-2.7-13.7-2.1-19.7,1.3l-65,37.1
					c-4.9,2.8-12.1,3.3-16.1,1.1l-38.7-21.8c-4.8-2.7-13.6-2.1-19.7,1.3l-70.6,40.3c-6,3.4-7,8.4-2.1,11.1l70.3,39.6"/>
			</g>
		</g>
		<g>
			<g>
				
					<radialGradient id="SVGID_13_" cx="403.597" cy="287.33" r="260.0738" gradientTransform="matrix(1 0 0 -1 0 456)" gradientUnits="userSpaceOnUse">
					<stop  offset="0" style="stop-color:#FFFFFF;stop-opacity:0"/>
					<stop  offset="7.210000e-02" style="stop-color:#FFFFFF;stop-opacity:0.1413"/>
					<stop  offset="0.5101" style="stop-color:#FFFFFF"/>
					<stop  offset="0.9782" style="stop-color:#FFFFFF;stop-opacity:4.450000e-02"/>
					<stop  offset="1" style="stop-color:#FFFFFF;stop-opacity:0"/>
				</radialGradient>
				<path class="st14" d="M750.8,49.7L536.9,171.7c-2.4,1.4-5.4,2.2-8.4,2.4s-5.8-0.3-7.7-1.4L494.5,158c-4.8-2.7-13.7-2.1-19.7,1.3
					L438.6,180c-6,3.4-7,8.4-2.1,11.2l19.1,10.8c4,2.2,3.2,6.3-1.8,9.1l-37.7,21.5c-2.4,1.4-5.4,2.2-8.4,2.4c-3,0.2-5.8-0.3-7.7-1.4
					L283.5,168c-2.3-1.3-5.7-1.9-9.4-1.6c-3.7,0.2-7.4,1.3-10.3,2.9L56.4,287.7"/>
			</g>
		</g>
		<g>
			<g>
				
					<radialGradient id="SVGID_14_" cx="367.437" cy="172.22" r="0" gradientTransform="matrix(1 0 0 -1 0 456)" gradientUnits="userSpaceOnUse">
					<stop  offset="0.4315" style="stop-color:#FFFFFF"/>
					<stop  offset="0.9196" style="stop-color:#FFFFFF;stop-opacity:0.1413"/>
					<stop  offset="1" style="stop-color:#FFFFFF;stop-opacity:0"/>
				</radialGradient>
				<path class="st15" d="M367.4,283.8"/>
				
					<radialGradient id="SVGID_15_" cx="328.0594" cy="139.8804" r="216.8684" gradientTransform="matrix(1 0 0 -1 0 456)" gradientUnits="userSpaceOnUse">
					<stop  offset="0.4315" style="stop-color:#FFFFFF"/>
					<stop  offset="0.9196" style="stop-color:#FFFFFF;stop-opacity:0.1413"/>
					<stop  offset="1" style="stop-color:#FFFFFF;stop-opacity:0"/>
				</radialGradient>
				<path class="st16" d="M614.2,424.3l-114.5-64.4c-1.9-1.1-2.8-2.6-2.4-4.4s1.8-3.4,4.2-4.8l10.6-6c2.9-1.7,4.7-3.7,5.1-5.8
					c0.4-2.1-0.7-4-3-5.3l-69.1-38.9c-4.8-2.7-13.7-2.1-19.7,1.3l-18,10.3c-4.9,2.8-12.1,3.3-16.1,1.1l-24.1-13.5
					c-1.9-1.1-2.8-2.6-2.4-4.4s1.8-3.4,4.2-4.8l24.3-13.9c2.9-1.7,4.7-3.7,5.1-5.8c0.4-2.1-0.6-4-3-5.3l-88.6-49.9
					c-2.3-1.3-5.7-1.9-9.4-1.7c-3.7,0.2-7.4,1.3-10.3,2.9L41.9,351"/>
			</g>
		</g>
		<g>
			<g>
				
					<linearGradient id="SVGID_16_" gradientUnits="userSpaceOnUse" x1="536.5276" y1="409.7181" x2="536.5276" y2="643.6846" gradientTransform="matrix(1 0 0 -1.6 0 1103.8384)">
					<stop  offset="0" style="stop-color:#FFFFFF;stop-opacity:0"/>
					<stop  offset="0.5972" style="stop-color:#FFFFFF"/>
					<stop  offset="0.9826" style="stop-color:#FFFFFF;stop-opacity:0"/>
				</linearGradient>
				<path class="st17" d="M369.7,446.8l-58.5-32.9c-4-2.2-3.2-6.3,1.8-9.1l55.5-31.7c2.9-1.7,4.7-3.7,5.1-5.8c0.4-2.1-0.6-4-3-5.3
					l-54.5-30.6c-1.9-1.1-2.8-2.6-2.4-4.4s1.8-3.4,4.2-4.8l38.5-22c6-3.4,7-8.4,2.1-11.1l-56.2-31.6c-4-2.2-3.2-6.3,1.8-9.1L394,197
					c2.4-1.4,5.4-2.2,8.4-2.4c3-0.2,5.8,0.3,7.7,1.4l68,38.3c2.3,1.3,5.7,1.9,9.4,1.7c3.7-0.2,7.4-1.3,10.3-2.9l276-157.5"/>
				<linearGradient id="SVGID_17_" gradientUnits="userSpaceOnUse" x1="311.247" y1="327.05" x2="311.247" y2="327.05">
					<stop  offset="0" style="stop-color:#FFFFFF;stop-opacity:0"/>
					<stop  offset="0.5972" style="stop-color:#FFFFFF"/>
					<stop  offset="0.9826" style="stop-color:#FFFFFF;stop-opacity:0"/>
				</linearGradient>
				<path class="st18" d="M311.2,327.1"/>
			</g>
		</g>
	</g>
</g>
</svg>
